<?xml version="1.0" standalone="no"?>
<!DOCTYPE svg PUBLIC "-//W3C//DTD SVG 20010904//EN"
 "http://www.w3.org/TR/2001/REC-SVG-20010904/DTD/svg10.dtd">
<svg version="1.0" xmlns="http://www.w3.org/2000/svg"
 width="1848.000000pt" height="1644.000000pt" viewBox="0 0 1848.000000 1644.000000"
 preserveAspectRatio="xMidYMid meet">
<metadata>
Created by potrace 1.10, written by Peter Selinger 2001-2011
</metadata>
<g transform="translate(0.000000,1644.000000) scale(0.100000,-0.100000)"
fill="#000000" stroke="none">
<path d="M2716 15301 c-5 -7 -42 -11 -98 -11 -62 0 -97 -4 -107 -13 -9 -8 -43
-19 -76 -26 -33 -7 -87 -24 -120 -37 -33 -13 -66 -24 -74 -24 -8 0 -24 -9 -36
-20 -12 -11 -44 -33 -72 -48 -27 -15 -65 -36 -84 -47 -42 -25 -246 -227 -260
-258 -19 -42 -54 -94 -91 -132 -40 -43 -80 -117 -98 -180 -7 -27 -14 -446 -20
-1290 -5 -687 -12 -1379 -16 -1536 -4 -177 -4 -288 2 -292 6 -3 23 1 39 9 36
17 307 218 350 258 17 16 53 47 80 68 154 123 537 506 623 624 16 21 39 48 52
59 12 11 36 40 53 65 17 25 59 74 93 110 57 61 211 237 278 319 89 109 521
535 746 736 127 113 163 142 300 248 56 42 63 48 182 130 85 58 365 227 376
227 5 0 27 12 48 28 45 32 66 42 154 77 36 14 74 30 85 35 160 72 177 79 240
96 51 15 203 48 287 64 26 5 56 13 67 19 23 13 88 15 94 3 3 -4 6 -603 8
-1332 3 -1411 4 -1376 -43 -1570 -6 -25 -14 -67 -19 -95 -8 -51 -44 -164 -100
-315 -17 -47 -37 -103 -44 -125 -40 -124 -178 -398 -254 -505 -25 -35 -62 -88
-81 -117 -74 -111 -196 -248 -407 -459 -175 -175 -381 -336 -573 -448 -36 -21
-67 -42 -70 -46 -5 -8 -513 -260 -524 -260 -4 0 -33 -12 -64 -26 -31 -14 -95
-42 -141 -60 -46 -19 -89 -38 -95 -43 -11 -8 -241 -111 -249 -111 -3 0 -61
-26 -128 -59 -68 -32 -153 -69 -189 -84 -36 -14 -119 -46 -185 -72 -98 -38
-378 -172 -975 -468 l-45 -22 -3 -248 c-2 -212 0 -248 13 -253 8 -3 44 14 82
39 79 52 266 153 484 263 220 110 236 118 314 152 39 17 134 62 212 101 79 39
145 71 148 71 8 0 256 105 330 140 144 68 238 110 247 110 5 0 94 41 198 90
104 50 191 90 194 90 12 0 133 56 296 136 91 45 192 94 225 109 76 36 272 147
350 199 33 22 98 72 145 110 258 215 446 434 687 801 64 97 153 260 153 279 0
16 93 196 101 196 5 0 8 -109 6 -247 -1 -137 0 -351 2 -478 4 -213 3 -234 -16
-286 -50 -136 -304 -461 -485 -620 -46 -40 -92 -82 -104 -93 -57 -57 -234
-191 -326 -247 -78 -49 -407 -219 -421 -219 -4 0 -30 -11 -59 -24 -29 -14
-114 -50 -188 -81 -74 -31 -169 -71 -210 -90 -106 -47 -245 -105 -252 -105 -3
0 -53 -22 -110 -48 -163 -77 -218 -102 -224 -102 -3 0 -30 -11 -60 -25 -30
-14 -57 -25 -60 -25 -2 0 -66 -29 -142 -64 -153 -72 -203 -94 -312 -141 -81
-35 -396 -194 -445 -225 -16 -10 -41 -25 -55 -33 -76 -43 -305 -187 -435 -274
-82 -55 -180 -117 -217 -137 -36 -20 -68 -42 -70 -49 -4 -12 8 -410 17 -530 2
-32 13 -76 24 -98 12 -22 21 -47 21 -56 0 -42 65 -146 136 -218 41 -41 79 -75
85 -75 5 0 28 -17 52 -38 23 -21 67 -49 97 -62 30 -13 62 -30 71 -37 8 -7 22
-13 30 -13 8 0 19 -4 24 -9 6 -5 33 -18 60 -29 49 -19 93 -20 1085 -31 1890
-20 1987 -20 2007 -6 17 12 18 38 18 352 0 591 -15 1517 -25 1527 -6 6 -24 3
-47 -7 -21 -9 -57 -21 -80 -27 -85 -20 -125 -31 -206 -54 -164 -49 -326 -106
-414 -146 -24 -11 -46 -20 -50 -20 -11 0 -208 -77 -230 -90 -10 -5 -47 -21
-83 -36 -60 -24 -89 -37 -225 -100 -84 -38 -144 -64 -149 -64 -3 0 -49 -21
-103 -46 -162 -76 -220 -102 -290 -135 -194 -88 -458 -241 -605 -350 -25 -18
-63 -45 -83 -59 -204 -141 -400 -316 -525 -467 -28 -35 -59 -63 -69 -63 -19 0
-75 56 -116 117 -14 20 -76 91 -138 156 -149 159 -147 157 -147 181 0 51 174
214 335 313 50 31 140 88 200 128 191 125 336 211 476 282 75 38 149 78 165
89 16 11 85 47 154 79 69 32 136 66 150 75 27 18 242 120 252 120 4 0 36 14
71 30 36 17 70 30 75 30 5 0 15 7 22 15 7 8 18 15 25 15 7 0 82 34 168 75 85
41 161 75 169 75 8 0 18 4 23 9 6 5 55 28 110 51 55 24 132 57 170 75 39 18
104 44 145 58 96 33 133 49 255 107 55 26 141 64 190 84 50 21 104 44 120 51
17 8 80 37 140 65 61 27 122 56 136 63 41 20 269 268 330 359 31 46 74 110 95
143 22 33 46 60 54 60 13 0 15 -213 16 -1558 0 -1334 3 -1560 15 -1568 8 -5
97 -8 199 -6 l185 2 0 2310 c-1 3048 -6 5239 -14 5505 -3 118 -3 269 1 335 4
66 2 192 -3 280 -6 88 -6 187 -2 220 l8 60 225 6 c124 3 232 2 242 -2 15 -8
17 -148 23 -1781 9 -2197 9 -2073 -3 -4733 -7 -1630 -7 -2202 2 -2207 6 -5
101 -7 211 -5 194 2 200 3 197 22 -2 11 -3 27 -3 35 0 8 0 416 1 905 0 490 -3
1018 -6 1175 -6 253 9 859 22 899 7 21 31 -4 60 -62 50 -98 124 -183 302 -347
145 -133 335 -236 652 -355 89 -33 518 -223 730 -323 52 -24 154 -69 225 -99
72 -30 171 -74 220 -97 50 -24 128 -60 175 -82 129 -59 488 -241 518 -262 15
-11 78 -50 141 -88 152 -92 161 -98 271 -162 97 -57 263 -174 335 -236 22 -19
74 -64 115 -101 107 -95 177 -140 194 -126 40 34 46 72 46 303 0 220 0 225
-22 245 -42 39 -335 231 -503 330 -323 190 -385 223 -856 453 -9 5 -59 27
-112 49 -52 22 -142 65 -199 95 -57 30 -128 64 -158 76 -30 11 -64 25 -75 30
-11 5 -63 27 -115 50 -52 23 -105 48 -117 56 -12 8 -48 24 -80 35 -32 12 -86
34 -121 50 -35 16 -69 29 -75 29 -7 0 -37 14 -67 31 -30 17 -129 69 -220 115
-231 117 -357 189 -450 259 -30 22 -68 49 -85 60 -73 46 -271 213 -386 327
-91 89 -144 151 -191 223 -153 237 -184 334 -174 558 3 73 8 257 12 410 3 152
9 277 12 277 11 -1 52 -70 52 -87 0 -8 7 -27 15 -41 7 -15 30 -64 48 -109 49
-116 219 -362 383 -553 72 -85 241 -256 324 -330 124 -109 353 -274 480 -345
25 -14 54 -31 65 -37 107 -66 157 -93 440 -238 116 -60 253 -127 305 -150 52
-23 154 -70 225 -105 128 -63 168 -81 475 -215 85 -37 202 -90 260 -118 58
-27 152 -72 210 -100 89 -42 560 -284 655 -335 50 -28 53 -16 56 219 4 241 7
230 -81 274 -79 39 -314 162 -390 204 -63 35 -194 100 -235 117 -11 5 -63 25
-115 45 -52 20 -161 68 -242 105 -82 38 -150 69 -152 69 -2 0 -53 23 -113 51
-59 29 -139 66 -178 84 -38 17 -95 43 -125 58 -30 14 -82 37 -115 52 -111 49
-449 224 -497 257 -14 10 -29 18 -32 18 -16 0 -295 186 -405 270 -68 52 -142
109 -165 125 -105 77 -412 386 -521 525 -114 146 -188 247 -245 335 -66 102
-180 319 -180 343 0 8 -7 30 -16 50 -9 21 -22 52 -30 70 -8 18 -14 41 -14 52
0 10 -4 21 -9 24 -5 3 -12 18 -15 33 -4 16 -21 73 -37 128 -57 189 -68 237
-95 430 -18 121 -34 1492 -26 2238 6 539 -2 501 100 472 127 -36 286 -84 332
-100 19 -7 60 -20 90 -30 30 -10 60 -21 65 -25 6 -4 39 -17 75 -30 61 -22 78
-29 148 -64 51 -26 147 -79 172 -96 14 -9 56 -34 95 -54 205 -110 537 -338
670 -460 33 -30 78 -68 100 -84 92 -66 328 -303 566 -567 79 -87 155 -171 168
-185 22 -24 133 -155 196 -232 34 -42 162 -188 204 -233 15 -16 102 -111 193
-210 172 -186 550 -558 698 -686 101 -87 165 -133 178 -125 13 8 24 2434 12
2621 -12 186 -22 258 -39 278 -7 9 -14 26 -16 39 -2 13 -7 42 -11 66 -7 42
-20 52 -41 31 -17 -17 -50 6 -58 40 -12 57 -9 94 10 107 17 13 16 16 -23 52
-48 45 -50 54 -20 81 18 17 20 24 10 45 -6 13 -20 27 -31 31 -12 4 -21 15 -21
26 0 11 -7 33 -15 48 -16 31 -148 157 -180 173 -12 5 -27 23 -34 39 -7 16 -25
36 -39 43 -15 8 -36 23 -46 35 -11 12 -29 21 -41 21 -13 0 -28 7 -35 15 -6 8
-22 17 -33 21 -12 4 -35 16 -52 28 -42 29 -115 37 -396 43 -209 4 -252 2 -284
-11 -35 -15 -39 -15 -50 0 -11 16 -80 17 -791 21 -428 2 -887 8 -1019 13 -303
12 -1640 29 -2860 35 -517 3 -1224 8 -1571 11 -457 4 -633 3 -638 -5z m6619
-79 c6 -4 11 -16 10 -27 0 -17 -6 -20 -40 -19 -68 2 -89 7 -109 23 -17 15 -15
16 40 22 33 3 66 6 74 7 8 1 20 -2 25 -6z m297 -44 c-12 -12 -35 -1 -27 12 3
5 13 6 21 3 10 -4 12 -9 6 -15z"/>
<path d="M4893 13854 c-235 -117 -274 -139 -280 -162 -3 -14 -2 -174 3 -356 5
-182 9 -578 9 -881 0 -302 4 -690 9 -860 10 -331 7 -355 -36 -355 -22 0 -107
-50 -128 -76 -7 -7 -22 -14 -34 -14 -49 0 -50 22 -54 1228 -2 868 -5 1112 -15
1113 -27 3 -43 -4 -75 -32 -18 -16 -36 -29 -40 -29 -4 0 -20 -12 -37 -28 -16
-15 -61 -52 -100 -84 -38 -31 -134 -119 -211 -196 l-142 -139 -7 -354 c-4
-195 -10 -766 -13 -1270 -6 -781 -9 -919 -22 -934 -8 -9 -37 -28 -65 -41 -51
-25 -70 -36 -118 -68 -22 -15 -30 -16 -42 -6 -20 17 -20 257 0 660 16 332 19
1168 5 1410 -14 236 -21 290 -37 290 -7 0 -17 -8 -20 -17 -20 -51 -239 -297
-513 -575 -106 -107 -165 -176 -188 -218 l-34 -61 -2 -577 c-2 -669 -22 -1434
-38 -1444 -6 -3 -55 -9 -110 -13 -75 -5 -102 -4 -114 6 -17 14 -18 -13 5 644
16 432 11 968 -9 1044 -8 29 -20 55 -27 58 -16 6 -44 -16 -353 -285 -296 -257
-498 -442 -504 -462 -3 -8 -6 -399 -8 -869 -2 -682 0 -855 10 -859 7 -2 52 12
100 31 48 20 123 48 167 63 44 14 150 53 235 85 85 32 178 65 205 74 87 29
215 85 372 161 84 41 155 74 158 74 3 0 25 8 48 19 23 10 78 34 122 54 75 32
168 75 293 134 30 13 70 30 90 38 49 17 241 115 319 162 375 228 610 412 844
659 63 67 159 186 159 199 0 3 24 38 53 78 58 78 57 77 151 217 73 109 136
231 164 316 36 110 71 229 98 334 96 372 94 351 90 1365 -3 468 -5 858 -5 868
-2 36 -61 15 -328 -119z"/>
<path d="M7496 13934 c-3 -9 -6 -417 -6 -907 0 -764 2 -903 16 -972 49 -253
82 -384 119 -470 7 -16 27 -66 45 -110 36 -89 89 -202 122 -255 11 -19 39 -69
61 -110 51 -94 133 -222 198 -308 54 -72 310 -348 344 -371 11 -8 43 -36 70
-62 28 -26 64 -58 80 -70 28 -22 78 -63 135 -113 76 -67 227 -172 395 -276 39
-24 81 -50 95 -59 14 -9 75 -41 135 -72 337 -171 435 -218 533 -255 37 -14 85
-33 107 -43 65 -30 135 -62 215 -98 41 -19 102 -47 135 -62 98 -47 146 -68
220 -96 39 -15 106 -42 150 -60 179 -74 315 -125 335 -125 19 0 20 6 20 108 0
59 3 447 6 863 4 430 3 763 -2 771 -5 8 -40 41 -79 73 -211 176 -436 393 -515
496 -101 131 -174 178 -200 129 -7 -13 -10 -291 -10 -870 1 -467 -2 -854 -5
-860 -3 -6 -50 -10 -105 -10 -92 0 -100 2 -111 22 -7 13 -13 94 -14 217 -4
212 -22 592 -31 652 -4 20 -1 69 6 108 7 43 13 203 14 399 2 180 7 387 11 459
l8 133 -29 42 c-16 23 -69 86 -119 139 -148 158 -192 206 -221 246 -15 21 -42
54 -60 73 -17 19 -64 78 -104 130 -134 177 -148 195 -199 249 -35 37 -52 49
-56 40 -3 -8 -6 -528 -7 -1156 -3 -1022 -5 -1144 -19 -1158 -14 -14 -21 -14
-75 1 -32 9 -78 20 -102 26 -23 5 -46 17 -51 26 -10 21 -7 1315 6 2017 l10
510 -33 50 c-30 47 -108 124 -284 280 -41 37 -86 74 -100 83 -14 9 -44 34 -66
55 -77 72 -135 95 -148 61 -4 -9 -6 -449 -5 -978 1 -1000 -4 -1258 -27 -1314
-12 -29 -16 -32 -41 -26 -15 4 -59 21 -98 39 -116 53 -111 27 -98 518 7 254 8
464 3 547 -5 74 -9 421 -9 772 l-1 636 -44 39 c-24 21 -66 50 -92 64 -103 54
-204 110 -251 137 -51 30 -146 72 -161 72 -6 0 -13 -7 -16 -16z"/>
<path d="M7465 7708 c-5 -26 -17 -934 -19 -1445 -1 -188 -3 -344 -6 -346 -3
-3 -37 -2 -75 3 -120 16 -336 -2 -313 -25 4 -4 207 -6 2003 -21 1216 -11 1107
-16 1250 63 153 85 255 163 255 194 0 4 -11 10 -25 13 -14 4 -58 37 -98 74
-99 93 -246 215 -333 276 -39 28 -115 83 -168 121 -54 39 -112 79 -129 90 -18
11 -40 26 -49 35 -68 62 -721 399 -1037 535 -42 18 -105 46 -141 63 -36 16
-108 46 -160 67 -52 20 -113 44 -135 54 -107 49 -260 107 -326 125 -30 8 -79
23 -109 34 -98 35 -347 112 -363 112 -9 0 -19 -10 -22 -22z"/>
</g>
</svg>
